<?xml version="1.0" encoding="utf-8"?>
<!-- Generator: Adobe Illustrator 26.0.3, SVG Export Plug-In . SVG Version: 6.00 Build 0)  -->
<svg version="1.1" id="Ebene_1" xmlns="http://www.w3.org/2000/svg" xmlns:xlink="http://www.w3.org/1999/xlink" x="0px" y="0px"
	 viewBox="0 0 1280 102" style="enable-background:new 0 0 1280 102;" xml:space="preserve">
<style type="text/css">
	.st0{fill:#FFFFFF;stroke:#FFFFFF;stroke-width:0.25;stroke-miterlimit:10;}
</style>
<g>
	<path class="st0" d="M64.23,35.03c0,7.56-3.19,12.52-9.49,15.04v0.17c8.4,2.35,8.65,11.59,8.9,17.22c0.25,5.71,0.84,8.9,2.35,11
		H52.8c-1.01-2.52-1.34-6.13-1.68-10.42c-0.67-8.4-2.02-13.02-10.33-13.02H27.52v23.44H14.33V18.48h32.34
		C57.25,18.48,64.23,25.79,64.23,35.03z M51.04,37.05c0-5.96-3.28-8.32-9.07-8.32H27.52v16.88h14.53
		C47.59,45.62,51.04,43.35,51.04,37.05z"/>
	<path class="st0" d="M93.29,56.03c0,8.82,3.86,12.77,12.35,12.77c9.24,0,12.43-3.95,12.43-12.77V18.48h13.19v37.55
		c0,14.95-8.65,23.86-25.62,23.86c-17.39,0-25.54-8.9-25.54-23.86V18.48h13.19V56.03z"/>
	<path class="st0" d="M195.35,33.27c0,6.22-3.02,10.08-8.15,12.6c7.39,2.1,11,7.73,11,15.2c0,11.93-10,17.39-21.17,17.39h-29.06
		V18.48h28.31C188.54,18.48,195.35,22.94,195.35,33.27z M182.58,35.62c0-4.79-3.19-6.89-8.9-6.89h-12.52v14.03h13.44
		C179.39,42.76,182.58,40.49,182.58,35.62z M185.02,60.32c0-5.8-3.44-8.57-9.41-8.57h-14.45v16.46h14.2
		C181.49,68.21,185.02,65.69,185.02,60.32z"/>
	<path class="st0" d="M225.67,78.46h-13.19V18.48h13.19V78.46z"/>
	<path class="st0" d="M287.5,29.57h-31.67v12.85h29.06v10.25h-29.06v14.7h32.34v11.09h-45.53V18.48h44.86V29.57z"/>
	<path class="st0" d="M347.14,36.38h-12.77c-0.42-6.05-3.95-9.07-11.76-9.07c-4.87,0-9.16,2.1-9.16,6.8c0,4.37,2.52,5.21,15.96,8.57
		c8.9,2.27,19.74,5.29,19.74,17.98c0,11.34-8.99,19.24-24.95,19.24c-12.68,0-25.54-6.05-25.54-20.92v-0.42h12.77
		c0,8.48,6.97,11.09,13.19,11.09c6.05,0,11.76-2.02,11.76-7.48c0-3.78-2.94-6.13-10.33-7.98c-4.45-1.18-8.32-2.02-12.18-3.28
		c-9.07-3.02-13.19-8.15-13.19-15.79c0-12.1,11.42-18.06,22.43-18.06C335.96,17.06,347.14,22.77,347.14,36.38z"/>
	<path class="st0" d="M414.67,78.46h-13.69l-4.54-13.36h-22.43l-4.7,13.36h-13.36l22.76-59.98h13.52L414.67,78.46z M377.46,55.28
		H393l-7.56-22.01h-0.17L377.46,55.28z"/>
	<path class="st0" d="M463.39,58.72h0.17V18.48h12.35v59.98h-13.19l-24.95-40.15h-0.17v40.15h-12.35V18.48h13.1L463.39,58.72z"/>
	<path class="st0" d="M545.96,48.14c0,18.9-10.25,30.32-27.05,30.32h-26.04V18.48h25.7C535.21,18.48,545.96,29.24,545.96,48.14z
		 M532.77,49.31c0-14.28-6.3-19.74-17.3-19.74h-9.41v37.8h11.68C525.97,67.37,532.77,62.25,532.77,49.31z"/>
	<path class="st0" d="M613.58,48.14c0,18.9-10.25,30.32-27.05,30.32h-26.04V18.48h25.7C602.83,18.48,613.58,29.24,613.58,48.14z
		 M600.39,49.31c0-14.28-6.3-19.74-17.3-19.74h-9.41v37.8h11.68C593.59,67.37,600.39,62.25,600.39,49.31z"/>
	<path class="st0" d="M641.3,78.46h-13.19V18.48h13.19V78.46z"/>
	<path class="st0" d="M710.6,78.46h-13.69l-4.54-13.36h-22.43l-4.7,13.36h-13.36l22.76-59.98h13.52L710.6,78.46z M673.39,55.28
		h15.54l-7.56-22.01h-0.17L673.39,55.28z"/>
	<path class="st0" d="M753.78,59.73h0.17l13.27-41.24h18.56v59.98h-12.35v-42.5h-0.17l-14.7,42.5H748.4l-14.7-42.08h-0.17v42.08
		h-12.35V18.48h18.56L753.78,59.73z"/>
	<path class="st0" d="M859.11,48.72c0,17.47-11.17,31.16-29.48,31.16s-29.48-13.69-29.48-31.16c0-17.81,11.09-31.67,29.48-31.67
		C847.77,17.06,859.11,30.58,859.11,48.72z M829.63,68.8c11.17,0,16.3-9.16,16.3-20.08c0-11.51-5.12-20.58-16.38-20.58
		c-11,0-16.21,8.99-16.21,20.58C813.33,59.9,818.62,68.8,829.63,68.8z"/>
	<path class="st0" d="M911.61,58.72h0.17V18.48h12.35v59.98h-13.19l-24.95-40.15h-0.17v40.15h-12.35V18.48h13.1L911.61,58.72z"/>
	<path class="st0" d="M994.18,48.14c0,18.9-10.25,30.32-27.05,30.32H941.1V18.48h25.7C983.43,18.48,994.18,29.24,994.18,48.14z
		 M981,49.31c0-14.28-6.3-19.74-17.3-19.74h-9.41v37.8h11.68C974.19,67.37,981,62.25,981,49.31z"/>
	<path class="st0" d="M1053.4,36.38h-12.77c-0.42-6.05-3.95-9.07-11.76-9.07c-4.87,0-9.16,2.1-9.16,6.8c0,4.37,2.52,5.21,15.96,8.57
		c8.9,2.27,19.74,5.29,19.74,17.98c0,11.34-8.99,19.24-24.95,19.24c-12.68,0-25.54-6.05-25.54-20.92v-0.42h12.77
		c0,8.48,6.97,11.09,13.19,11.09c6.05,0,11.76-2.02,11.76-7.48c0-3.78-2.94-6.13-10.33-7.98c-4.45-1.18-8.32-2.02-12.18-3.28
		c-9.07-3.02-13.19-8.15-13.19-15.79c0-12.1,11.42-18.06,22.43-18.06C1042.23,17.06,1053.4,22.77,1053.4,36.38z"/>
	<path class="st0" d="M1081.04,78.46h-13.19V65.52h13.19V78.46z"/>
	<path class="st0" d="M1149.67,78.46h-13.69l-4.54-13.36h-22.43l-4.7,13.36h-13.36l22.76-59.98h13.52L1149.67,78.46z M1112.45,55.28
		h15.54l-7.56-22.01h-0.17L1112.45,55.28z"/>
	<path class="st0" d="M1210.15,35.03c0,7.56-3.19,12.52-9.49,15.04v0.17c8.4,2.35,8.65,11.59,8.9,17.22c0.25,5.71,0.84,8.9,2.35,11
		h-13.19c-1.01-2.52-1.34-6.13-1.68-10.42c-0.67-8.4-2.02-13.02-10.33-13.02h-13.27v23.44h-13.19V18.48h32.34
		C1203.17,18.48,1210.15,25.79,1210.15,35.03z M1196.96,37.05c0-5.96-3.28-8.32-9.07-8.32h-14.45v16.88h14.53
		C1193.51,45.62,1196.96,43.35,1196.96,37.05z"/>
	<path class="st0" d="M1270.37,29.57h-17.98v48.89h-13.19V29.57h-17.98V18.48h49.14V29.57z"/>
</g>
</svg>
